<svg xmlns="http://www.w3.org/2000/svg" viewBox="0 0 900 900">
  <path fill="#097236" fill-rule="evenodd" d="M714 152c66-14 121-45 166-91 20 163 3 311-50 443-31 47-82 78-150 94a325 325 0 0 0 34-446zM118 839c29-113 95-176 197-190a326 326 0 0 1-180-292 344 344 0 0 1 1-25C39 397 0 473 18 561c25 76 87 109 188 99-84 60-131 125-141 195 20 5 37 0 53-16zm0 0"/>
  <path fill="#09572a" fill-rule="evenodd" d="M620 330c-4 4-6 1-10 5l-4 9c-1 7 1 6-5 10-4 4-4 4-10 5-4 1-4 4-7 7-4 5-3-1-6 8-2 6-4 3-7 7l-3 5-3 3-1 5c3 3 4 1 2 7v10l-4 8c-1 4-2 4-5 6l3 7h-2l-1 5c4 3 1 5 8 3-2 3-4 2-1 6l2 4c2 3 4 3 4 7-1 3-1 5 1 7 3 3 2 0 4 4l2 3 3 2 8 9c13-4 14-4 24 1l6-2h1c6 0 8-3 12-3 12-1 11 4 11 12l2-1 5 1h4c3 6 3 6-2 13l-1 1-5 8-2 2 2 13-3 18c-1 4-1 1-3 4-2 4-1 7-4 10-2 2-5 3-8 7-4 0-2 4-7 7-4 2-1 1-3 4l-5 4-1 8c23-2 47-6 70-12l17-19c3-6 4-5 6-8 2-5 6-10 9-14l4-4 1-2c14-20 25-42 33-64v-3l1-8c-1-13 1-7 1-14 0-12 1-9 2-21l-1-23-2-18v-5c2 2 1 3 1 6 1 9 3 0 5 8v6c0 15 3 16 1 24-2 7 1 7-3 24l-2 14a315 315 0 0 0-46-288c-4 0-2 0-5-3 1 4 3 3 4 6l-5-3c-2-2-4-8-6-9l-3-3c4 1 6 4 8 5v-1l-13-16-7-5c-7-3 0-4-9-4-2-5 0-3-4-5-5-3-3-1-7-2l2 4c-3-1 0-5-5-5l2 5c-7-3-3-3-2 2l-4-1v12c2 4-1 1 1 7l1 7v1l-4 8-1 1h-2l2 3c-5 0-4 2-4 3 0 0-2 2 1 7l3 1c-2 3-2-1-2 3h2l3-1c-2 3-3 4-3 7l3-1c0 4-2 3 2 7 7 6 9-1 11-6l13 20c-2 4-1 2-2 2l-2 1c0 2 1 3 3 5-2 1-1-1-2 1 2 2 1 2 4 0v-6c3 4 0 4 5 3v-3c1 0 6 2 4-6l-3-8c1-1 2-1 2-4 2-8-6-3-11-20-1-6 5-4 3-10l-1-2c-2-2-2-4-2-6 3-1 5 1 7 3 2 3 1 8 0 11s2 7 6 13c1 1 4 9 10 8l7-2c1 2 1 3 4 3l-1 2-1 2c-5 0-1-3-6-1l-3 1-2 1c1 3 1 1 3 2 1 0 6 5 6 10-4 0-2-3-5-4-4 5 1 10 3 15-2 2-1 0-3 1-2 2 3 1-1 3-3-2 0-2-3-4-3 0-7 2-9 5l-6-4-5 2c-2-5-6-5-6-9l3 3c0-5-1-3-3-5 1-3 0-2 2-3l-2-3v-2l-2-4c-4 1 0 2-5 3v2h2l-2 1c0 4 2 6 4 10l1 3v4l-2-1-2 1c-11 2-4 5-9 10-2 2-4 2-7 3v4l-6 4c-6-1 0-3-6-3l2 6-6-1h-7c2 7 2 5 8 7s1 5 8 8v16c-8 1-16-2-21-3s-3-3-7-2l-5 2c0 1 4 6 2 16 0 2 0 4-2 4-3 6 0 6 1 9 1 2 0 4-1 6l5 1h4c3 1 3 4 5 6 2 1 3 0 6-1 6-3 7 3 12-2l3-2 3-3 2-2c-1-3-3-5-1-7l4-6c4-1 4 0 7-2 5-5-3-8 2-10s8 3 10 3l7-4c2-2-2 0 2-3 5 2 5 7 7 10l4 5 4 6c3 1 1-1 5 3l4 5c6 8 0 9 3 12l2-3v-1l1-3c-1-3-2-2-1-6 3 1 1 3 5 4 1-3-2-6-3-7-3-3-6-2-5-6-7-1-7-7-9-10-3-6-4-2-5-8l-1-4c3-2 0-1 4-1l1 5c2-1 0 0 2-3l3 7c2 4 4 4 6 7l2 2c2 3 6 3 7 8v7l3 4c2 4 1 7 5 9-1 2-2 2 0 7l5 4-1-8-1-1-1-1v-1l4 4c4-4 0-6-1-7-3-3 0 1-1-3-2-3-2-2-2-5 2 2 0 2 3 2 3-3-2-2 2-4 2-1 2 1 5 2 2-1 5-4 6-1 1 4-4 2-7 2l2 6c1 3 1 4-1 6l3 3 1 6c7 3 0 2 6 4l1-3h2l3 5c5-3-2-4 6-3-2 6-1 11-1 17l-2 8c-1 4-1 4-3 5-5-1 0 0-2-2l-2-1c-3 1-1 2-4 4-4-3-2-3-6-5l-5-3c-2-2-2 0-4-3l-1-2-3-1c-2-1-4 1-5 2-3 6 2 5-3 10-4-1-2-3-8-5-5-3-4-3-4-8l-3-1-7-3-6-5c-5-4-1-4 1-8 1-3 0-3-2-6l2-4-2-1-2-2-6 1-6-1h-6c-5-1-12-2-19 0-13 6-7 6-14 4l-5-1c-6-1-3-2-6-5l-2 3-1 2-3 5zM553 91l-4-3s-4 3 4 3zm58 101 1 2 3-2v-2zm81 16c1 3 1 2 3 3l-1-6c-2 1-2 0-2 3zM544 103c0-2 2-4-7-5 1 3 4 4 7 5zM310 371c2 2 4 2 7 1 2 0 1 0 1-1-2-2-5-2-6-2-4 2-1 1-2 2zm372-80c0 3 0 6 3 7l1-4-1-3v-2l-3 2zm-421 75h7l-4-4-6-1 1 2 2 3zm108-158 4-1c-2-3-8-5-11-6l2 3zm82-106c-3-1-2-4-8-3-2 6 2 6 8 5v-2h6l-2 3-2 2-2 6-3-2 3-3h-5c-1 3 1 1-6 6 1 4-1 1 2 3-2 1-3 1-3 3l2 11c1-1 3-2 6-1-4 3-4 0-5 6 2 3 2-1 2 3l2 6 1 1v1l3 6h9c1 3 3 3 3 6h8c1-4 1-2 4-6v-8h5l1-3 3-2c0-3 1-1-2-3 3-2 3 2 2-4 7 2 0-3 10-1 1-2 0-2 3-4l-2 4c8-2 12-1 16-6l3-3c6-3 0 0 2-4 3 2 2 4 8 3 10-3 9 1 16-4l7-2-8-3c-4-2-6 0-9 0l7-4h-8l2-1h4c0-4-2 0-1-3l3 2 3 3c3 3 6 3 9 3-1-2-2-6-4-7v-1c-7-6-5 2-10-9l3-1c3 2 5 4 10 2-2-4-3-1-5-4h7l-2-2-3-3h3c-4-8-5-3-10-8h8c-2-4-5-2-5-4v-1h-4l-1-4c5-3 0 1 4-5h-3l3-1-1-2 3-1c0-4-3-4-7-4-8 0-4 1-7 3v-5c-4-1-2 0-6 1v-2c-3 0-9 1-10-1 2-1 10 2 14 0-5-1-4-1-7-3s-12-4-17-2h-12l2 2-7-3-1 3c-5-5-10-2-17-3l3-1c-3-4-2-3-13-5h-5c-5-1-26-2-30 2-2 3 1 2-5 5l3-4 1-1c-3-2-10 0-13 1l-11 6v1l5 1c3-1-2-2 14-2-2 3-1 0-7 1-5 0-4 1-6 4l-1-1c-1 3 0 0 0 0-2-1 1-1-2-1l-2 1-1 1c-3 2-6 1-9 1 0 2 0 0 2 3h12v3c2-1 8-1 9-3l1-1 2-1h2l6-1c3 0-1 0 2-1 7-2 4 0 4-5 6 5 24-3 39-3-2 4-3 1-8 1l-9 2c-1 2 0 0 1 4l-22 2c2 7 5 3 10 4-3 2-12 0-13 0l1 2 2 1c-3 2-2-1-2 3l13 1c4 0 9 3 10 5v1l1 4c1 13-4 10-6 14 4 3 5 1 8 0 1 0 1-2 1 2 1 4 3 2 3 5-4 1-1 0-2-1-1 0-3-2-8-1 1 4 4 1 5 5zm256 226v-8h-5l-3-2-2 2c1 3 6 7 10 8zm-26-27 1 12c3 0 3-1 5-2 0-8 2-8-2-12zm-383 60c-4-1-3-2-9-2l-7-1c3 5 1-1 3 7-4 0-7-2-10-1l3 3 7-1c5 1 2 2 5 4 4-1 1-1 3-2 5-1 9 1 12-1l-4-3zm76-300-1 1c-2 3-2 1-2 4l21 3 6-3c-2-6-7-1-16-5l1-1 2-3-1-1-4-1-3 1c-1 3 0 0 1 4l-4 1zm211 14 4 2c3 2 5 6 11 4 1 4-3 1 1 4l4 2 8 6c-1-6-2-4-4-6l-2-3c11 4 2 4 10 6 1-4-3-4-7-6-2-1-1 1-2-2h-1l-1 1c-2-2 1-3-7-5h2l4 1-13-7-1 3zM276 353l-6-4-7-5c-4-5-2-2-5-4-4-2 1-1-4-3-7-3-18-6-19 3 5 1 7-5 12-3 0 4-1-3-1 2 0 2 2 2 4 3h1l3 2h5c1 7 2 5 6 7-2 4-2 0-3 4l8 1c2 0 2 2 7 0h1c0-3 0-2-2-3zm345-131-1-3-2-2c2-1 3-1 3-3 0-6-10-6-10-6h-2c0 6 2 1 0 4-1 2-2 1-3 0-5-1 0-1-2 6l4 1c-6 9-4 11 6 9 9-2 4 1 7-6zm-222-24-9 10-4 3c-2 2-4 3-5 6 5 3 14 1 17 3l1 2-4 1c3 4 5-2 10-3l-1 5h1c3 0-1 1 4 2l3-6-2 1 1-4-4 3 4-5-3-1 2-2c1-2 1-1-1-2-4-2-5-1-7 1l-1-2v-1l-1-3c-2-1-1 2-3 0l7-8h-5l4-1c4-2 0 0 3-7v-4l-6-3-2-1-9 2c9-4 10-2 12-4l-5-2c-8-5-3 0-8-6-3-4-4-3 0-7l1-1c-4-7 0 3-2-8-1-3-2-9-4-11l-7 6c-3 3-1 2-4 2l-5 2c-3-4 0-6-7-5l3-3 3-5 2-3-7-3-4-8c-10 2-10-4-16 0-2 3 1 2-2 5-4 3-2 0-3 5-2 5-5 5-8 7 0 4 2 4 2 9-1 7-11 11-19 12 0 4-1 14-5 16l-6 3c-2-3-4-8-3-12l6-10c-3-2-4-2-9-2-4-7-1-2-4-5s-1-5-5-6c-3-3-2-3-6-2 5-11 3-8 2-10-1-3 2-6 4-8l2-1c6-4 11-9 17-11l4-1-2-4c2 2 2 3 5 3s1-1 5-2c7-1 6-2 11-4l-3-2c4 0 4 1 7-1 5-3 1-3 5-4 2 2 1 2 2 5l1-1 1-1v-1l1-2 3 1c2 0 8-2 9-4l1-4 6-3 1-1-1-1c-1-3 0-4-8-3-2 4 0 3-7 6h-2c-7 1 0 2-7 4 2-6 7-2 6-9-2 0-2 2-7 3l6-5c-2-2-1 0-3-1l1-1c5-2 2-1 5-4 3-4 2-1 4-6 5 0 3 0 6-2l4-1 10-4-4-2c-7 0-14 7-24 12l-9 4c0 4 3 2-2 7-3 3-4 2-7 4l-5 3c1-4 1-1 5-4l-3-3c-6 2-4 7-13 1 1-5 0-1 2-4-5 1-5-1-8 3l-3 2-3 3c1-2 2-2 2-5h-6c3-4 6 0 6-6-23 13-44 29-63 47l-1 1v1l-2 2-2 1c-26 27-47 58-62 92-3 9-10 27-9 31l2 8-2 10v17c-1 5-1 0-2 3l2 6c4 9-1 1 2 14 1 2 0 6 2 7 4-3 0-5 0-11l-2-25c0-4 0-10 2-13 3 3 1 8 1 15l2 15c0 5 1 8 3 13 2 4 2 8 2 14 1 5-4 8 4 18 2 3 15 16 18 16 3 2 3 0 6-1 3 2 3 1 5 5 6 11 2 5 11 11 3 2 5 4 8 2-1 3-1 2 1 5 6 6 4 8 5 11 1 5 5 2 8 8 2 7 2 1 10 9l3 1 2-1-1-3 5-4c2 3 2 2 2 5l2 5c4 5 2 8 3 14v5c-3 5-3 2-5 4-1 2 0 3-2 5l-3 3v2c-1 3-3 10 0 12h3c-1 5-3 2-5 6-1 2 1 4 2 6v2l1 1 2 2c6 5 0 1 7 9l2 3 11 18c4 11 10 13 20 20 6 4 3 4 8 6 1 6 4 10 4 19 0 6 2 6 3 9l1 10c-1 8 3 12 5 18 5 13-1 14 4 19l4 5 38-9-2-2-1-1c4 0 3 1 6 2h1l8-1c2-2 3-5 3-8h3c5-3 2-3 4-6 2-2 4-2 4-4 2-7-3-9 5-12l4-2c11-2 3-4 10-3 3 0 8 1 11-2 3-2-1 0 3-5l5-4v-4l1-2c5-9 3-7 4-14l2-6c4 1 5-1 7-3 2-4 0-2 3-4 2-1 4-1 5-3 7-5 7-10 6-19-9-4 1 5-13-7l-2-2c-3-2-1-4-6-5l-9-1c-3-1-3-2-7-2h-5c3-5 1-5-5-7l-10-5c-4 3-4 7-8 4 4-1 6-2 6-6l-10-2-1 4c-5 0-4 3-8 1h1l3-3c5-6 4 0 9-9-3-5-4 1-5-11l-1-2-9-7c-4-2-1-3-5-4h-3l-4-1h-7c0-4-2-5-6-6 1-5-4-6-7-10h-7c2-2 3-2 3-5l-5-3-4-2 3-1c-6-4-12 0-14 0-7 0 2-3-14-3l-2-6h-5l-2-4-1 4-6 1c0 5 2 5 1 9-2 0-2-1-4-3 2-5 3-2 2-8l1-1c3-2 2-2 2-3-3-5-5 1-8 2s-3-1-6 1-2-1-5 0c-2 4 0 5-3 7l-5 5c-4-3-4-5-7-6l-3-2c-12 4-10 3-13-2l-3-4c-2-3 0-8 0-12l2-12c-3-1-3 0-4-4l-14-2c-3 0-1 1-3-1-1-2 1 0 1-2 1-2 2-9 1-11 3-2-3 0 2 0 2 0 1-3 2-6 1-6 4-2 3-9-3-2-9-1-13 0-2 14-4 7-5 13h-1c-6-1-9 4-13-6a41 41 0 0 1-2-29l1-2 1-2 1-6c0-2 1-6 3-8 3-5 3 1 6-5l2-2h5l3 1c3 1 3-1 4 3h4c3 1-2 3 3 1v-2l-2-4h8c7 0 6 0 9 6 4 0 2-1 5-2l1 3 3 4-2 5v2l1 3c4 19 11 10 9 0l-1-8v-3c0-5-1-9 2-13l3-2v-1l3-2c4-1 12-9 19-9 1-3-2-1 1-2 1-1 2 0 4-3l-3-1s2-1 2-3l-2-4 2-4-2-3c3 2 2-3 5-4-1 5-2 3-1 6 1 5-1 1-1 6l4-5c2-2 2-4 1-7l1 1 2 2c3-2 1-1 2-3l2-2c3-4 0-2 1-4 2 1 8 1 10-1-3-1-3 1-5-1h17c-6-3-3-4-2-10l6-2 4-1 1-1h1l21-4 1 2c-4-1-4-1-6 1l-6 3 1 5c5-1 5-2 7-4l17-3c3-1 6-1 7-3v-6c-6 1-8 6-9 6l-5-1c-2 0-3-1-4-3-5-4-1-7-1-10l-7-1h2l3 1v-1c1 2-1 1 3-1l4-3c-5-8-20 0-26 2l-4 2-3 2c1-3 2-2 7-5l7-4c5-2-1 2 8-4 4-2 18 0 20 1 5 0 9 2 13 1l6-3c2-2 1-1 5-1h5zm149-61c-2-2 0 0-3-1-2 6 0 1-3 4 6 1 6-1 9 2v2c-2 0-4-2-7 0 3 1 3-1 7 2 2 2-2 0 1 1l-1 2c-2 1-1-1-2 1 6 1 5 0 9 2 7 5 10 2 17-1 2 0 4 0 6-4-5-5-3 0-6-5-2-4-1 0-5-5-3 2 0 3-5 2-5 0-4-2-7 1l-2-2c-1 3 2 1 0 2-5 4 0-3-9-5l1 2zm70 54c-2 7-2 4-4 5 2 4 3 1 4 2 0 5-2 1-1 5 1 0 2 0 3-2 0 2-2 6 0 8 1-3-1-3 2-3 2 5 0 2 1 6l3 1h2l1 2 2 4v3l-5-1 1 4h1c1 3-2 3-4 5 2 3 1 1 5 2l5 1c-3 3-1-1-5 2-3 1-4 4-4 5 3 1 4-3 7 0l1-2 9 1c4 0 6 1 9-2h-1l-1-1-2-1c3-3 3-2 3-7l-6-1-2-6-4-5c-5-4-1-9-10-10l2-2 1-7h-8c1-6 2-1 2-6h-7zM384 73c0 3-1 2 1 4l-2 2-3-1 1-1 1-2 2-2zm-10 34c-2 2-4 1-6 4l-1 2h-5c-1 0-9-3-13 3 2 2 4 2 7 2h9c0 7 1 5 3 6l-2 2 2 4h4c1 3 1 2 5 4l5 2c2-6-1-5-2-9 4 1 5 4 9 6 3-3 1-1 2-4h2c3 0 0 0 1-6 1-4-2 1-4-5-1-3 1-9 5-5s-1 2 2 6l4 2c6-6 3-1 6-3l2-3c2 1 3 0 5-1l-3-3h-2c-4-3-1-1-2-3l-1-2c-2-2-1-1-6-2-2-5-3-1-3-4l7-1-1-3 1-3h-2c2-4 1 1 1-4l-7-1c3-2 2 1 3-2l-2-2h-2l-2 2c-1-5 2-6-3-8l-2-1-1-1h6c0-3 1-2-3-3h-6c0-3-3-2-11 0-5 2-3 2-5 4-4 3-1-1-4 4 0-6-1-3 2-5 6-6 8-3 11-6-7-4-18 6-24 8 1 4 2 1 3 4l-3-1h-3c0 2-1 3 4 5l12 3c8 2 3 1 7-1 5 11 7 11 6 17zm381 173v6h-3l-2-5 5-5c0 2-2 4 0 4zm5 17c2 3 7 13 3 14h-3l-4-3c0-1 0-3-4-3-3 0-2 2-5 4-5-1-5-2-6-5-2-7-1-3 0-9l-1-4c0-8 1 0 2-5v-2c-1-3 0-5 1-7 4 3-2 4 5 3l-1 3 1 3 2 6 2-3 2-1c2 1-1-1 2 3 2 2 3 2 4 6zm-494-64h3l1-3c3 3-2 1 10 0h5c-2 2-1 2-4 2-5 2-8 4-11 4s-3 0-4-3zm18-6c4-5 3 0 14-2l-2 4-7-1-4-1zm-17-34 1 1 2 1v4l1 1c2 2 1 4 1 6h-9l-3-3 1-2 1-1c-6 1-4 4-12 3l-4-1 11-4c5-2-1-1 10-5zm-6 17c4 0 6-2 10 0l2-1c0-1-1-1 1-1 6 5 9 0 12 10-3 2-1 2-4 2l-2-4c-1 5-2 2-4 6-2 3 1 3-3 5v-6c-5-1-2 1-4-1 3-2 4-2 4-6l-5-3c-4 3-7 4-9 8-3 5 0 7-5 11l-3 2c-2-3 1-8 2-11 3-3 4-6 7-7l-1-1c-6-1 1 2-2 0l4-3zm-14-35v-8c0-5 3-5 4-5l-3 14-4 4c-1-2 1-3 3-5zm0 0"/>
  <path fill="#2a7d2e" fill-rule="evenodd" d="M406 751c-71-2-131-26-182-74 73-40 167-63 284-68 161 9 268-26 322-105-63 161-205 242-424 247zm0 0"/>
</svg>
